<svg width="1366" height="1366" viewBox="0 0 1366 1366" fill="none" xmlns="http://www.w3.org/2000/svg">
<rect width="1365.33" height="1365.33" rx="184.5" fill="#FF5555"/>
<path d="M0 1365V0H1365V1365H0Z" fill="url(#paint0_linear_209_2)"/>
<path d="M639.51 145.419C639.918 146.433 639.918 169.348 639.306 196.52V196.52C638.855 223.927 616.417 245.858 589.007 245.682L448.338 244.782L270.837 243.647C263.641 243.601 257.569 248.988 256.758 256.138V256.138C256.146 263.032 255.739 354.69 256.146 459.933L256.591 598.982C256.683 627.657 233.462 650.952 204.786 650.952V650.952V650.952C176.07 650.952 152.778 627.698 152.732 598.981L152.408 397.476L152.276 234.2C152.236 184.496 192.497 144.169 242.201 144.128L395.347 144C529.25 144 639.103 144.608 639.51 145.419ZM1212.82 172.187C1212.21 187.192 1211.6 300.547 1211.6 424.243V610.405C1211.6 631.679 1194.35 648.925 1173.08 648.925V648.925C1152.09 648.925 1129.26 648.316 1122.74 647.708V647.708C1115.91 647.017 1110.72 641.268 1110.72 634.405V447.158C1110.72 337.453 1110.1 247.216 1109.49 246.607C1108.68 245.796 1016.76 245.188 905.073 245.188H751.558C724.232 245.188 702.079 223.035 702.079 195.709V195.709V151.995C702.079 148.688 704.512 145.885 707.786 145.419V145.419C710.843 144.811 825.995 144.608 963.77 144.811L1187.04 144.992C1201.84 145.004 1213.6 157.412 1212.82 172.187V172.187ZM549.631 564.162C549.427 708.137 549.834 790.06 551.261 794.724C552.484 798.983 552.484 802.227 551.465 802.633C548.204 803.849 434.479 921.26 410.837 948.027C397.997 962.627 380.877 981.688 372.521 990.408V990.408C367.17 996.17 357.528 992.428 357.463 984.565L357.235 956.949C356.216 791.683 355.809 416.538 356.828 382.268V382.268C357.51 359.647 375.994 341.636 398.625 341.54L454.248 341.306L459.614 341.283C509.564 341.072 550.131 381.579 549.994 431.529L549.631 564.162ZM992.71 631.688C1000.46 637.569 1007.79 651.764 1007.79 660.686C1007.79 675.286 994.749 692.32 981.909 694.753C955.006 699.823 930.753 681.775 933.198 658.658C934.625 645.883 938.701 638.583 948.484 631.891C963.158 621.752 979.463 621.752 992.71 631.688ZM1211.6 970.738V1131.78C1211.6 1181.49 1171.31 1221.78 1121.6 1221.78H956.84H750.95C723.959 1221.78 702.079 1199.9 702.079 1172.91V1172.91V1172.91C702.079 1145.85 724.089 1123.95 751.152 1124.08L906.907 1124.85L1021.2 1125.3C1071.11 1125.5 1111.65 1085.04 1111.55 1035.12L1111.33 923.896L1110.81 752.503C1110.76 735.533 1124.32 721.655 1141.29 721.318V721.318C1158.2 721.115 1180.83 720.506 1191.83 720.304V720.304C1202.68 720.081 1211.6 728.817 1211.6 739.672V970.738ZM255.739 923.896V1035.67C255.739 1085.45 296.152 1125.78 345.934 1125.67L442.835 1125.46C545.554 1125.26 631.969 1125.26 634.823 1125.26V1125.26C637.669 1125.37 639.918 1127.71 639.918 1130.56V1173.52V1173.52C639.918 1200.17 618.31 1221.78 591.656 1221.78H397.182H191.783C170.823 1221.78 153.612 1205.21 152.815 1184.27V1184.27C152 1163.58 151.796 1051.24 152.204 934.44L152.667 773.489C152.749 744.988 175.877 721.926 204.379 721.926V721.926V721.926C232.744 721.926 255.739 744.92 255.739 773.286V923.896ZM822.734 820.68L920.785 821.318C970.116 821.639 1009.99 861.612 1010.2 910.944L1010.24 920.448L1010.29 928.622C1010.6 978.475 970.323 1019.08 920.47 1019.18L705.34 1019.61L419.189 1020.37C411.454 1020.39 407.174 1011.41 412.06 1005.41V1005.41C427.142 987.163 561.655 853.936 586.928 832.441L593.343 826.847C600.831 820.318 610.663 817.137 620.556 818.044V818.044C628.912 818.652 720.015 819.869 822.734 820.68Z" fill="white"/>
<defs>
<linearGradient id="paint0_linear_209_2" x1="-87.5" y1="-68.5" x2="1452.5" y2="1537.5" gradientUnits="userSpaceOnUse">
<stop stop-color="#FB3939"/>
<stop offset="0.59" stop-color="#E281AB"/>
<stop offset="1" stop-color="#5976E0"/>
</linearGradient>
</defs>
</svg>
