<svg width="103" height="115" viewBox="0 0 103 115" fill="none" xmlns="http://www.w3.org/2000/svg">
<path d="M13.6797 14.6404L15.1997 13.8804C14.6797 14.1004 14.1697 14.3604 13.6797 14.6404Z" stroke="black"/>
<path d="M69.179 46.6803C72.709 52.7703 75.499 59.1503 77.559 65.8103C79.619 72.4803 80.6489 78.9302 80.6489 85.1502C80.6489 91.3702 79.619 96.6302 77.559 100.92C77.249 101.57 76.919 102.19 76.569 102.78C74.639 106.13 72.179 108.66 69.179 110.37C65.649 112.38 61.499 113.19 56.729 112.8C51.959 112.41 46.859 110.64 41.429 107.51C36.009 104.38 30.9089 100.25 26.1389 95.1402C21.3589 90.0202 17.209 84.4102 13.679 78.3302C10.149 72.2402 7.35895 65.8603 5.29895 59.2003C3.23895 52.5303 2.20898 46.0802 2.20898 39.8602C2.20898 33.6402 3.23895 28.3802 5.29895 24.0902C7.35895 19.8102 10.149 16.6602 13.679 14.6402L15.199 13.8802C18.379 12.4302 22.0289 11.8702 26.1389 12.2102C26.1889 12.2102 26.2389 12.2202 26.2889 12.2302C31.0189 12.6402 36.069 14.4002 41.429 17.5002C44.269 19.1402 47.0089 21.0402 49.6689 23.2202C52.0989 25.2102 54.459 27.4302 56.729 29.8702C60.159 33.5602 63.279 37.4903 66.059 41.6803C67.149 43.3103 68.189 44.9803 69.179 46.6803Z" fill="url(#paint0_linear_202_43)" stroke="white"/>
<path d="M29 75V36.65V30L37.35 34.82V70.5911L52.5301 79.5901V84.0901V88.5901L48.8008 86.4362L45.0716 84.2823L29 75Z" fill="#EA8989"/>
<path d="M29 75C29 60.0234 29 51.6266 29 36.65V30L37.35 34.82V70.5911M29 75L37.35 70.5911M29 75L45.0716 84.2823L48.8008 86.4362M37.35 70.5911L52.5301 79.5901V84.0901M48.8008 86.4362L52.5301 88.5901V84.0901M48.8008 86.4362L52.5301 84.0901" stroke="white"/>
<path d="M87.6582 101.13C88.1782 100.91 88.6882 100.65 89.1782 100.37L87.6582 101.13Z" stroke="black"/>
<path d="M100.649 75.1501C100.649 81.3701 99.6192 86.6301 97.5592 90.9201C95.4992 95.2001 92.7092 98.3501 89.1792 100.37L69.1792 110.37C72.1792 108.66 74.6392 106.13 76.5692 102.78C76.9192 102.19 77.2492 101.57 77.5592 100.92C79.6192 96.6301 80.6492 91.3701 80.6492 85.1501C80.6492 78.9301 79.6192 72.4801 77.5592 65.8101C75.4992 59.1501 72.7092 52.7701 69.1792 46.6801C68.1892 44.9801 67.1492 43.3101 66.0592 41.6801C63.2792 37.4901 60.1592 33.5601 56.7292 29.8701C54.4592 27.4301 52.0992 25.2101 49.6692 23.2201C47.0092 21.0401 44.2692 19.1401 41.4292 17.5001C36.0692 14.4001 31.0192 12.6401 26.2892 12.2301C26.2392 12.2201 26.1892 12.21 26.1392 12.21C22.0292 11.87 18.3792 12.4301 15.1992 13.8801L33.6792 4.6401C37.2092 2.6301 41.3592 1.82005 46.1392 2.21005C50.9092 2.60005 56.0092 4.37009 61.4292 7.50009C66.8592 10.6301 71.9592 14.7601 76.7292 19.8701C81.4992 24.9901 85.6492 30.6001 89.1792 36.6801C92.7092 42.7701 95.4992 49.1501 97.5592 55.8101C99.6192 62.4801 100.649 68.9201 100.649 75.1501Z" fill="url(#paint1_linear_202_43)" stroke="white"/>
<defs>
<linearGradient id="paint0_linear_202_43" x1="4.5" y1="14" x2="68.5" y2="119" gradientUnits="userSpaceOnUse">
<stop stop-color="#FF5353"/>
<stop offset="0.49" stop-color="#D26B81"/>
<stop offset="1" stop-color="#76BDFF"/>
</linearGradient>
<linearGradient id="paint1_linear_202_43" x1="29.6274" y1="2.11499" x2="86.2209" y2="110.37" gradientUnits="userSpaceOnUse">
<stop stop-color="#85A3F4"/>
<stop offset="0.505" stop-color="#CD6E8F"/>
<stop offset="1" stop-color="#FF4B4B"/>
</linearGradient>
</defs>
</svg>
